<?xml version="1.0" encoding="UTF-8"?>
<svg version="1.1" xmlns="http://www.w3.org/2000/svg" width="1024" height="1024">
<path d="M0 0 C337.92 0 675.84 0 1024 0 C1024 337.92 1024 675.84 1024 1024 C686.08 1024 348.16 1024 0 1024 C0 686.08 0 348.16 0 0 Z " fill="#FEFEFE" transform="translate(0,0)"/>
<path d="M0 0 C1.00707001 -0.00067474 2.01414001 -0.00134949 3.05172729 -0.00204468 C19.78217432 0.01565425 36.11295252 0.80843047 52.6875 3.25 C53.84314453 3.41097168 54.99878906 3.57194336 56.18945312 3.73779297 C75.88460809 6.53717259 94.70623406 11.45689784 113.6875 17.25 C114.69280762 17.55164063 115.69811523 17.85328125 116.73388672 18.1640625 C131.57341736 22.65500761 145.64382604 28.71095049 159.6875 35.25 C160.57324707 35.66121094 161.45899414 36.07242188 162.37158203 36.49609375 C188.20257239 48.61912058 211.96920769 64.39457416 233.81591797 82.68701172 C235.56657375 84.14901254 237.33033941 85.59338422 239.09765625 87.03515625 C253.57708727 98.98989256 267.18252028 112.40410593 278.6875 127.25 C280.24775217 129.06443536 281.81041451 130.87679993 283.375 132.6875 C315.90070708 171.76877594 338.82625929 220.73348723 351.08789062 269.85546875 C351.63866595 272.05498193 352.2143588 274.24622966 352.796875 276.4375 C372.77282284 353.64209314 361.50638723 440.65237857 327.6875 512.25 C327.25324707 513.17216309 326.81899414 514.09432617 326.37158203 515.04443359 C308.0409305 553.60108718 282.92145045 587.18255307 252.8125 617.3125 C251.89597656 618.24126953 250.97945312 619.17003906 250.03515625 620.12695312 C243.89923443 626.27581993 237.4927123 631.8572031 230.6875 637.25 C229.5878457 638.15513007 228.48981031 639.06223667 227.39453125 639.97265625 C195.57493653 665.69456885 159.06818239 684.47616148 120.6875 698.25 C119.31585693 698.74838379 119.31585693 698.74838379 117.91650391 699.25683594 C64.39374209 718.54912086 5.87017061 722.60811234 -50.3125 715.25 C-51.34906738 715.11609863 -52.38563477 714.98219727 -53.45361328 714.84423828 C-128.40526939 704.7388099 -203.55112497 668.89945604 -256.3125 614.25 C-258.8920097 611.65360317 -261.48864944 609.0782789 -264.109375 606.5234375 C-270.67050091 600.10806531 -276.64987513 593.48557623 -282.3125 586.25 C-283.38208109 584.9199844 -284.45245192 583.59060366 -285.5234375 582.26171875 C-310.35664092 551.19934623 -329.37556003 515.8178117 -342.3125 478.25 C-342.66828125 477.21842773 -343.0240625 476.18685547 -343.390625 475.12402344 C-351.20210976 452.20608942 -356.13305439 429.23912911 -359.3125 405.25 C-359.49127686 404.00516846 -359.67005371 402.76033691 -359.85424805 401.4777832 C-361.79920228 387.01956237 -361.75244681 372.50323368 -361.75 357.9375 C-361.75061684 357.26584682 -361.75123367 356.59419365 -361.7518692 355.90218735 C-361.76688449 333.35681993 -360.67110078 311.40908062 -356.3125 289.25 C-356.07724609 288.03505859 -355.84199219 286.82011719 -355.59960938 285.56835938 C-352.58639069 270.46906243 -348.34736643 255.79178107 -343.3125 241.25 C-343.02761719 240.42419434 -342.74273437 239.59838867 -342.44921875 238.74755859 C-336.37926474 221.33108668 -328.86438736 204.58379217 -320.3125 188.25 C-319.94962891 187.55471191 -319.58675781 186.85942383 -319.21289062 186.14306641 C-307.89190853 164.64586589 -293.88272704 144.8638417 -278.3125 126.25 C-277.88662598 125.73244141 -277.46075195 125.21488281 -277.02197266 124.68164062 C-270.87129692 117.21248489 -264.4016376 110.15910391 -257.5625 103.3125 C-256.86576172 102.61495605 -256.16902344 101.91741211 -255.45117188 101.19873047 C-250.89421106 96.69036284 -246.17439147 92.42568049 -241.3125 88.25 C-240.33667969 87.39277344 -239.36085938 86.53554687 -238.35546875 85.65234375 C-219.30245421 69.20576075 -198.51714611 55.29517981 -176.37939453 43.37597656 C-174.54928351 42.37899191 -172.73970987 41.34450927 -170.93359375 40.3046875 C-135.59865879 20.3636026 -95.19080042 9.17370622 -55.3125 3.25 C-54.21687744 3.08008545 -54.21687744 3.08008545 -53.09912109 2.90673828 C-35.52101691 0.18155093 -17.75150129 0.01082241 0 0 Z " fill="#000000" transform="translate(512.3125,152.75)"/>
<path d="M0 0 C0.83402344 0.56847656 1.66804688 1.13695312 2.52734375 1.72265625 C15.52640984 10.71319976 26.49187407 21.66233251 35.80957031 34.38330078 C36.93118524 35.90654402 38.0857229 37.40538696 39.2421875 38.90234375 C43.37463247 44.33689874 46.65441785 49.82985469 49.57421875 56 C50.48657019 57.91968741 51.44401008 59.81897839 52.45703125 61.6875 C60.18035628 76.03372908 64.63338438 91.94342328 67 108 C67.17128418 109.06114014 67.34256836 110.12228027 67.51904297 111.21557617 C68.02002602 115.15757531 68.17908345 119.02977861 68.203125 122.99609375 C68.20882507 123.74729996 68.21452515 124.49850616 68.22039795 125.2724762 C68.22979647 126.85831316 68.23636131 128.44416921 68.24023438 130.0300293 C68.24984767 132.39994681 68.28088079 134.76896061 68.3125 137.13867188 C68.38338807 147.45931513 67.28008602 156.92513455 65 167 C64.76676025 168.06887451 64.53352051 169.13774902 64.29321289 170.23901367 C60.97773068 185.00968068 55.15726225 198.72239336 48 212 C47.45730469 213.02480469 46.91460938 214.04960938 46.35546875 215.10546875 C36.31285683 233.21149169 22.45033163 249.46531069 6 262 C5.04351563 262.74894531 4.08703125 263.49789063 3.1015625 264.26953125 C-30.9376052 290.49130479 -72.66733571 300.76144723 -115.30859375 296.68359375 C-148.38239743 292.38775292 -180.29728229 278.95659968 -204.78125 256.0625 C-206.75737093 254.22554251 -208.78954621 252.52188835 -210.875 250.8125 C-226.04111494 237.51157259 -236.52499792 220.05888294 -245 202 C-245.38671875 201.21625 -245.7734375 200.4325 -246.171875 199.625 C-263.06395174 164.17933077 -264.96117219 120.14903307 -253 83 C-252.80067871 82.3802832 -252.60135742 81.76056641 -252.39599609 81.12207031 C-246.74210222 63.94711634 -238.04492405 48.26932929 -227 34 C-226.28328125 33.06027344 -225.5665625 32.12054688 -224.828125 31.15234375 C-206.24966241 7.59024247 -180.6467869 -11.60253206 -152 -21 C-150.84927002 -21.38212646 -150.84927002 -21.38212646 -149.67529297 -21.77197266 C-99.82368774 -37.97887312 -42.61166093 -31.51999301 0 0 Z " fill="#151515" transform="translate(608,379)"/>
<path d="M0 0 C1.62298853 1.37390306 3.22718847 2.77028839 4.8125 4.1875 C6.04419922 5.27804687 6.04419922 5.27804687 7.30078125 6.390625 C23.67814886 21.77465305 33.98792267 43.35071178 35.1953125 65.8203125 C35.99688538 92.04412759 27.18539211 115.47020642 9.29736328 134.81591797 C-5.12834914 149.67268733 -27.26819786 160.70548843 -48.1875 161.1875 C-48.8067334 161.21183105 -49.4259668 161.23616211 -50.06396484 161.26123047 C-75.56389012 162.2000569 -98.49452922 154.99548677 -117.5 137.8125 C-135.68316949 120.65122404 -146.68668297 98.58236313 -147.52416992 73.43701172 C-147.91966041 48.29187787 -137.7780393 25.81452979 -120.67578125 7.58984375 C-108.39399342 -4.26776931 -93.63770065 -12.2827346 -77.1875 -16.8125 C-76.44242187 -17.03679687 -75.69734375 -17.26109375 -74.9296875 -17.4921875 C-49.68817435 -23.91250269 -20.13739426 -15.60648055 0 0 Z " fill="#FEFDFD" transform="translate(568.1875,440.8125)"/>
</svg>
